<?xml version="1.0" encoding="UTF-8"?>
<!-- Created with Inkscape (http://www.inkscape.org/) -->
<svg width="210mm" height="297mm" version="1.1" viewBox="0 0 210 297" xmlns="http://www.w3.org/2000/svg">
 <path transform="matrix(.26458 0 0 .26458 -.75959 44.056)" d="m205.27 607.19 70.818-134.03-150.01 21.81 124.99-85.764-142.96-50.4 150.53-17.854-103.16-111.06 141.59 54.146-39.733-146.29 100.2 113.74 32.801-147.99 35.868 147.28 97.82-115.8-36.685 147.08 140.43-57.076-100.83 113.18 150.87 14.723-141.88 53.359 126.75 83.149-150.43-18.689 73.587 132.53-124.51-86.457 3.5699 151.54-70.072-134.42-67.265 135.84 0.42086-151.59z" fill="none" opacity=".59317" stroke="#d4d4d4" stroke-width="34.462" style="paint-order:fill markers stroke"/>
</svg>
