<?xml version="1.0" encoding="UTF-8"?>
<!-- Created with Inkscape (http://www.inkscape.org/) -->
<svg width="210mm" height="297mm" version="1.1" viewBox="0 0 210 297" xmlns="http://www.w3.org/2000/svg">
 <g fill="#ececec">
  <circle cx="82.178" cy="94.8" r=".062505" stroke="#000" stroke-width=".26458"/>
  <circle cx="82.178" cy="94.8" r=".062505" stroke="#000" stroke-width=".26458"/>
  <g>
   <path d="m74.197 90.003c0.37503 0.63955 0.57648 1.3664 0.70687 2.0916 0.06528 0.36306 0.1243 1.1208 0.20182 1.4751 0.05085 0.23239 0.13795 0.45533 0.20692 0.683 0.2305 0.98369 0.30992 1.9913 0.42122 2.9926 0.02365 0.2128 0.02633 0.42905 0.07143 0.63835 0.06175 0.28656 0.16531 0.56249 0.24796 0.84374 0.26632 0.76475 0.34841 1.5682 0.48495 2.3596 0.03753 0.2175 0.10365 0.42965 0.13668 0.64788 0.06631 0.43818 0.05634 0.73143 0.06204 1.1668-0.10119 0.95115 0.2972 1.801 0.52615 2.7004 0.07376 0.28976 0.11946 0.58593 0.17918 0.8789 0.09936 0.35528 0.19872 0.71056 0.29808 1.0658 0.36188 1.6844 0.49577 3.3993 0.65657 5.1112 0.05877 1.8005 0.05901 3.6052 0.19062 5.403 0.36007 2.1392-0.07001 4.2865-0.06286 6.4302-0.01463 0.30396-0.0454 0.60756-0.04394 0.91187 0.0016 0.32433 0.04276 0.64738 0.053 0.97155 0.02082 0.65932 0.0041 1.3194 0.02299 1.9788 0.03277 1.1445 0.04255 1.0293 0.15573 2.2179-0.04349 0.81454 0.06881 1.6255 0.07012 2.4388 5.29e-4 0.3983-0.03983 0.7957-0.04962 1.1939-0.02857 1.1627-0.02048 2.328-0.03402 3.4911 0.14109 2.198 0.2147 4.3938 0.20742 6.5958-0.11729 1.5275 0.122 3.049 0.14381 4.5748 0.04591 3.2116-0.11581-0.83214 0.04033 2.5118 0.09264 1.5231-0.22375 3.0312-0.26544 4.5466-0.01868 0.67904 0.02183 1.3586 0.01453 2.0378 0.03164 0.58108 0.07958 1.732 0.17405 2.2859 0.09729 0.57047 0.27006 1.1259 0.37948 1.6941 0.30585 1.5884 0.52011 3.1905 0.64901 4.8014 0.07904 1.1973 0.10916 1.2308 0.08601 2.3646-0.0059 0.29061-0.07666 0.58259-0.04093 0.87107 0.02151 0.17373 0.52123 1.9283 0.56357 2.1242 0.07147 0.33064 0.10698 0.66804 0.16047 1.0021 0 0 50.093-0.86737 50.093-0.86737-0.0681-0.3612-0.14875-0.72026-0.20428-1.0836-0.0992-0.64935-0.0857-1.3176-0.24088-1.9559-0.0763-0.31406-0.21647-0.60912-0.31998-0.91531-0.43218-1.2785-0.33688-1.0122-0.72011-2.3882-0.1266-0.46285-0.28172-0.91882-0.37978-1.3885-0.16147-0.77349-0.3223-2.2008-0.31407-2.9913 0.0124-1.185 0.33364-2.3621 0.29717-3.5522-7e-3 -0.67909 0.0337-1.3584 0.0154-2.0373-0.0409-1.5161-0.35616-3.0249-0.26329-4.5486 0.14984-3.2274 2.5e-4 0.5865 0.0388-2.5177 0.0191-1.5425 0.2545-3.0834 0.10683-4.6265-0.0589-2.2486-0.0684-4.4973-0.14207-6.7454-0.22539-2.3009-0.26628-4.6063-0.16643-6.9159 0.11338-1.1892 0.12294-1.0723 0.15607-2.2172 0.0191-0.65893 3e-3 -1.3186 0.0239-1.9775 0.0105-0.32379 0.052-0.64643 0.0539-0.97039 2e-3 -0.30397-0.0285-0.60729-0.0427-0.91093 0.0109-2.1458-0.4125-4.296-0.0497-6.4368 0.13563-1.8995 0.14139-3.8083 0.0264-5.7087-0.0241-0.71942-0.0255-1.2171-0.1096-1.9321-0.15216-1.2941-0.46838-2.5721-0.7404-3.8436-0.0581-0.59422-0.15831-1.1846-0.19423-1.7806-0.11948-1.982 0.0757 0.23621 0.0563-1.2966-4e-3 -0.30568-0.11824-0.95688-0.16461-1.2506-0.087-0.38807-0.23885-1.0496-0.30896-1.4303-0.0508-0.27589-0.072-0.55729-0.13444-0.83078-0.17394-0.76206-0.50345-1.4933-0.50533-2.2929-0.13563-1.4425-0.62072-2.8301-0.77814-4.2735-0.0167-0.2876-8e-3 -0.57782-0.0501-0.86278-0.0306-0.20671-0.11814-0.40105-0.16726-0.60416-0.21513-0.88942-0.32679-1.6384-0.0109-2.5189 0 0-51.475 0.56963-51.475 0.56963z" stroke-width=".018492" style="paint-order:fill markers stroke"/>
   <path transform="scale(.26458)" d="m589.83 491.93c-12.252 5.3278 5.8289-2.5988-7.5293 3.498-7.3854 3.3708-14.911 6.4423-22.451 9.4473-11.371 4.0698-22.558 8.6155-33.939 12.658-9.6727 3.5302-18.979 7.9816-28.109 12.732-11.238 6.162-22.602 12.135-34.332 17.311-10.806 4.4934-21.562 9.1169-32.188 14.023-5.9573 2.7892-11.997 5.5014-17.764 8.6758-4.4541 2.452-8.7097 5.2906-13.102 7.8496-10.144 6.1362-20.598 11.705-31.129 17.146-3.1241 2.0056-6.1969 4.0005-8.832 6.6504-0.99874 1.0041-1.5327 1.6203-1.9902 2.1992-2.5596-1.9233-5.0919-3.8802-7.6641-5.8691-2.493-1.9277-5.0516-3.7758-7.4531-5.8164-3.0952-2.63-8.3998-7.9459-11.418-10.918-9.7925-8.2468-19.844-16.153-29.688-24.334-1.4706-1.202-2.8955-2.462-4.4121-3.6055-0.13535-0.10184-8.6164-5.9506-8.8301-6.1016-4.6176-3.2608-3.9248-2.8647-8.4746-6.2578-1.3245-0.98774-2.6598-1.9596-3.9902-2.9394-1.2437-0.94942-5.5868-4.2367-6.8184-5.2793-1.0071-0.85259-1.8995-1.8374-2.9199-2.6738-3.0309-2.4839-6.5104-4.2551-9.7285-6.4648-3.6034-2.2116-3.363-2.1542-7.0996-4.0879-2.3503-1.2162-4.7902-2.2537-7.1309-3.4883-1.1917-0.62858-2.3118-1.3876-3.5059-2.0117-1.2335-0.64468-2.5144-1.1936-3.7715-1.791-4.158-2.2087-8.1846-4.7015-12.393-6.8105-2.481-1.2436-4.3978-1.6837-6.5332-3.4492-0.55005-0.45476-0.89429-1.112-1.3418-1.668l-192.67 24.785c4.6397-0.12207 8.9199 1.453 13.238 2.8965 4.4624 1.4916 7.7199 2.6973 11.914 4.8223 6.8127 3.7771 13.742 7.3451 20.701 10.852 3.1288 1.5815 6.0732 3.4881 9.1406 5.1797 1.2569 0.69317 2.5601 1.3014 3.7949 2.0332 2.7972 1.6579 5.4622 3.5302 8.207 5.2734 9.2015 5.8249 17.942 12.329 27.066 18.27 11.001 7.1318 21.258 15.326 31.645 23.307 1.6929 1.1237 15.051 9.9774 16.154 10.764 2.6352 1.8782 5.1096 3.9732 7.7207 5.8848 10.334 7.5651 7.3402 4.9658 17.982 12.467 2.7324 1.9259 5.3954 3.9467 8.0938 5.9199 8.8299 6.5404 17.486 13.318 26.518 19.582 14.731 10.216-3.2317-2.4733 10.99 7.6172 10.928 7.0444 21.154 15.08 31.299 23.189 9.9663 8.1098 19.905 16.264 29.547 24.758 4.8515 4.9459 10.118 9.5036 14.781 14.631 31.4 59.048 4.5159 10.051 194.61 5.3223 0.58473-0.0151 2.4484-15.114 2.8418-17.631 0.0941-2.6918 0.43852-5.3591 0.90429-8.0059-2.3004 0.60747-4.517 1.1924-7.1758 1.8906-2.8954-1.245-5.6663-2.8059-8.3066-4.5371-1.2357-0.81018-2.3753-1.7616-3.6094-2.5742-0.72466-0.47722-1.4763-0.91124-2.2207-1.3574 9.0636-0.32897 17.014-0.61469 23.006-0.77735 0.38685-1.3366 0.79131-2.6686 1.2441-3.9824 1.9108-5.9544 2.9111-12.164 4.6426-18.176 1.1652-3.0523 2.4169-6.0923 3.248-9.2598 0.68425-2.6078 0.39264-2.8326 1.3906-5.2891 0.32332-0.79608 0.77048-1.535 1.1562-2.3027 1.908-6.578 5.3107-12.666 9.0117-18.395 3.7786-5.1592 8.211-9.7609 12.369-14.604 0.66773-0.61954 1.2868-1.2977 2.0039-1.8594 1.9394-1.5189 2.3198-1.4252 4.4082-2.5254 2.5957-1.3674 5.0377-2.9762 7.4805-4.5938 8.5898-6.3012 17.977-11.377 27.334-16.422 6.3199-3.1367 12.237-7.0192 18.586-10.105 2.4596-1.1956 8.4947-3.7169 10.904-4.7402 5.6411-2.4872 11.514-4.4189 17.189-6.8184 1.8536-0.78376 3.648-1.6996 5.4902-2.5098 1.7564-0.77246 3.5802-1.397 5.3047-2.2383 1.8228-0.88928 3.5479-1.9649 5.3223-2.9473 10.742-6.7494 22.126-12.381 33.887-17.107 9.6386-4.23 19.738-7.252 29.51-11.129 1.5873-0.65008 3.1898-1.2634 4.7617-1.9492 1.6266-0.70961 3.2104-1.5156 4.832-2.2363 6.9072-3.0698 3.1993-1.2871 10.297-4.252 4.8317-2.0184 6.3235-2.7802 11.117-5.0254 8.1324-3.0024 16.183-6.2542 24.395-9.0391 11.807-4.0044-0.92097 0.73777 9.8106-3.3574zm-78.371 203.19c-8e-3 0.0289-0.0125 0.0587-0.0195 0.0879 0.0498-0.0178 0.0858-0.032 0.13477-0.0527 3e-3 -6e-3 7e-3 -0.0116 0.01-0.0176s6e-3 -0.013 0.01-0.0195c-0.0504 1e-3 -0.0833 2.1e-4 -0.13477 2e-3zm-1.6934 7.3555c0.0516-0.0136 0.0928-0.0257 0.13477-0.0371-0.0163-0.0453-0.0469-0.13194-0.0762-0.2207-0.0156 0.0868-0.0433 0.17096-0.0586 0.25781zm1.6387-7.1172c-7e-3 0.0353-0.0159 0.0702-0.0234 0.10546 0.0239 0.0117 0.0428 0.02 0.0606 0.0273h2e-3l2e-3 -2e-3v-2e-3c6e-3 -0.0179 0.0139-0.0358 0.0195-0.0547v-2e-3c-0.0142-0.0184-0.0374-0.0459-0.0605-0.0723zm1.2891 0.10156c-0.0184 6e-3 -0.0372 0.0117-0.0547 0.0176-6e-3 2e-3 -0.0117 4e-3 -0.0176 6e-3 -2.6e-4 0.0794 4.6e-4 0.15886 0 0.23828 0.0312-0.11215 0.0461-0.16719 0.0723-0.26172zm-1.5918 1.2129c-0.0214 0.0815-0.0369 0.16425-0.0566 0.24609 0.0168-7e-3 0.0332-0.0137 0.0488-0.0195 0.0101-0.0429 0.0188-0.0861 0.0293-0.12891-8e-3 -0.0326-0.0152-0.0648-0.0215-0.0977zm-0.32812 1.8633c-0.0134 0.0129-0.0263 0.0242-0.0391 0.0352 0.0581 0.081 0.11855 0.17414 0.17187 0.24023 0.0218-0.0355 0.038-0.0604 0.0527-0.0801-0.0983-0.12595-0.13776-0.15254-0.18554-0.19531zm-0.29883 0.85547c-7.1e-4 3e-3 -8e-4 7e-3 -2e-3 0.01 0.0154 0.0384 0.0474 0.0878 0.0781 0.13086 2e-3 -3e-3 2e-3 -5e-3 4e-3 -8e-3 1e-3 -2e-3 3e-3 -4e-3 4e-3 -6e-3 -0.0279-0.0426-0.0561-0.0845-0.084-0.12695zm9.1836 0.18945c-1e-3 4.5e-4 -3e-3 2e-3 -4e-3 2e-3 -2e-3 2e-3 -5e-3 4e-3 -8e-3 6e-3 -3e-3 0.0666-0.0557 0.14071-0.17578 0.18164h-2e-3c-2e-3 0.0293-3e-3 0.0585-4e-3 0.0879 0.0599-0.0163 0.13491-0.0362 0.1875-0.0508 2e-3 -0.0755 4e-3 -0.15098 6e-3 -0.22656zm-7.125 0.0371c-3e-3 0.0182-5e-3 0.0365-8e-3 0.0547 0.0225 7.5e-4 0.12665 3e-3 0.11523-6e-3 -0.0196-0.0151-0.0403-0.0312-0.0644-0.0449-0.0106-7.9e-4 -0.0315-3e-3 -0.043-4e-3zm0.10742 0.0488c4e-3 3e-3 0.01 5e-3 0.0137 8e-3l6e-3 -0.01c3e-3 2e-3 -0.0215 6e-5 -0.0195 2e-3zm-1.5703 0.18359c-6e-3 0.0103-0.0116 0.0208-0.0156 0.0312-0.0203 0.0488-3e-3 0.0175 0 0.0156 8e-3 -0.0146 9e-3 -0.0319 0.0156-0.0469zm-0.0176 0.0645c-0.0211 0.10176-0.0517 0.19935-0.0742 0.30078-2e-3 0.013-5e-3 0.0262-8e-3 0.0391v2e-3c8e-3 0.038 0.0119 0.0768 0.0137 0.11524 0.0108-0.0306 0.0224-0.0569 0.0332-0.12696 4e-3 -0.0355-3.8e-4 -0.0734 4e-3 -0.10742 7e-3 -0.0746 0.0206-0.14844 0.0312-0.22265zm-0.082 0.34179c-1e-3 7e-3 -3e-3 0.0137-4e-3 0.0215 0 4e-3 3e-3 0.0155 4e-3 0.0117 2e-3 -0.0107 0-0.0225 0-0.0332zm-192.62 0.041c-0.64058 1.6827-1.3327 3.3428-2.0996 4.9688-0.0268 0.0544-1.2571 2.8016-1.6914 2.6777-0.56554-0.16138-0.55734-1.066-0.62305-1.6504-0.22084-1.964-2.2046-5.8982-0.22852-5.9238 1.6313-0.0212 3.0318-0.0503 4.6426-0.0723zm192.04 1.3906c8.1e-4 0.0287 3e-3 0.0573 4e-3 0.0859 0.0125-0.0281 0.026-0.0529 0.0391-0.0801-0.0143-2e-3 -0.0288-4e-3 -0.043-6e-3zm-0.46484 0.23047c-8e-3 9.4e-4 -0.0156 3e-3 -0.0234 4e-3 -6e-4 3e-3 -8.4e-4 7e-3 -2e-3 0.01 9e-3 -5e-3 0.0168-9e-3 0.0254-0.0137zm0.2539 0.1836c-0.10875 0.0404-0.21636 0.0819-0.32226 0.1289-0.0113 4e-3 0.0139 0.0214 0.0215 0.0176 0.10037-0.0475 0.20316-0.0935 0.30078-0.14648z" stroke-width=".069893" style="paint-order:fill markers stroke"/>
   <g stroke-width=".018492">
    <path d="m128.17 184.23c3e-3 3e-3 8e-3 6e-3 0.01 0.01 3e-3 6e-3 3e-3 0.0246 8e-5 0.031-7e-3 0.0127-0.0174-3e-5 -0.0191-8e-3 -5e-3 -0.0204-4e-3 -0.0416-7e-3 -0.0624-1.1911-3.5699 3.1239-0.92507 2.9676 0.0519-1e-3 8e-3 -4e-3 0.0152-7e-3 0.022-8e-4 1e-3 -0.01 6e-3 -0.0119 2e-3 -2e-3 -4e-3 -1e-3 -9e-3 -2e-3 -0.0131-2e-3 -0.0226 9e-3 -0.0364 0.0187-0.0551l-2.9671-0.0206c0.0134 0.0188 0.0119 0.0431 0.0104 0.0651-4e-3 0.0299-0.01 0.0596-0.0121 0.0896-0.0854 1.0875 2.2815 0.22356 2.9783 0.11451 1.8e-4 -0.0228 1e-3 -0.0457 5.3e-4 -0.0685-2.6e-4 -0.01-2e-3 -0.0195-3e-3 -0.0294-3e-3 -0.0319 4e-3 -0.0465 0.0286-0.0672 0 0-2.9844-0.0619-2.9844-0.0619z" style="paint-order:fill markers stroke"/>
    <path d="m128.97 183.97c3e-3 4e-3 5e-3 8e-3 9e-3 0.011 0.0178 0.0168-5.3e-4 -9e-3 0.0181 0.0154 4e-3 5e-3 7e-3 0.0112 0.0107 0.0161 7e-3 8e-3 0.0168 0.014 0.0228 0.023 8e-3 0.0122 0.0127 0.0265 0.0191 0.0397 9e-3 0.0474 0.0142 0.0557 0.01 0.1051-2e-3 0.0233-0.0147 0.0769-0.02 0.10061l2.8477 0.0103c-4e-3 -0.0256-0.0123-0.0695-0.0118-0.095 7.9e-4 -0.0471 9e-3 -0.069 0.0212-0.11429 7e-3 -0.0178 0.0137-0.0357 0.0213-0.0533 7e-3 -0.0154 0.0151-0.03 0.0212-0.0456 1e-3 -3e-3 0.0104-0.0421 0.0117-0.0471 2e-3 -6e-3 2e-3 -0.0117 5e-3 -0.0168 1e-3 -2e-3 4e-3 -2e-3 6e-3 -3e-3 0 0-2.9913 0.0538-2.9913 0.0538z" style="paint-order:fill markers stroke"/>
    <path d="m130.15 183.86c3e-3 3e-3 5e-3 6e-3 8e-3 9e-3 6e-3 3e-3 0.0127 3e-3 0.017 8e-3 0.0146 0.0153 0.0167 0.0391 0.0212 0.058 0.0154 0.0641 0.0106 0.0275 0.0117 0.10077-2e-3 0.0212-5e-3 0.0423-7e-3 0.0636-6e-3 0.0709-3e-3 0.09-0.0183 0.16277-0.0207 0.0961-0.06 0.18742-0.0957 0.27856-0.054 0.13875-0.10961 0.27774-0.18754 0.40516-0.0124 0.0204-0.0262 0.0399-0.0393 0.0598-0.0391 0.0415-0.10613 0.1236-0.17416 0.0942-6e-3 -3e-3 -0.0114-8e-3 -0.0171-0.0123-4e-3 -5.3e-4 -0.0114-6e-3 -0.0134-2e-3 -4e-3 7e-3 -0.0124 0.0768-0.014 0.0873-6e-3 0.0365-0.0147 0.0707-0.0257 0.10585-0.012 0.0332-0.0241 0.0669-0.0408 0.0981-0.0133 0.0249-0.0307 0.0474-0.0471 0.0702-9e-3 0.014-0.0238 0.0354-0.0241 0.0527-1e-3 0.065-0.0579 0.19115 7e-3 0.19487l2.97-0.024c6e-3 -0.0272 2e-3 -0.0146 0.0118-0.038 0.0188-0.0289 0.0471-0.0486 0.0745-0.0685l-2.877-0.27729c-0.0391 0.0264-0.0794 0.0511-0.12239 0.0707-8e-3 2e-3 -0.0155 6e-3 -0.0236 6e-3 -6e-3 3e-5 -0.0246-6e-3 -0.0182-6e-3 0.98483-7e-3 1.9714-0.0742 2.9545-0.0152 0.064 4e-3 3e-3 0.12833 1e-3 0.19243-7.9e-4 0.0202-6e-3 0.0168-0.0156 0.0149-2e-3 -0.0136-3e-3 -0.0205-1e-3 -0.0349 4e-3 -0.0386 0.0222-0.0742 0.041-0.10758 0.0132-0.0185 0.0473-0.0725 0.0778-0.0495 7e-3 5e-3 7e-3 0.0197 0.0153 0.022 6e-3 2e-3 6e-3 -0.0104 9e-3 -0.0157 6e-3 -0.0272 9e-3 -0.0336 0.0112-0.0619 2e-3 -0.0242 7.9e-4 -0.0541 2e-3 -0.0781 2e-3 -0.033 7e-3 -0.0762 0.0109-0.10835 0.0343-0.16305 0.0753-0.32474 0.12981-0.48236 0.0318-0.0951 0.0628-0.19033 0.10754-0.2804 0.062-0.12479 0.0359-0.0554 0.0976-0.17385 0.0122-0.0234 0.0221-0.048 0.0331-0.0721 0.0924-0.18443-0.0252 0.0469 0.0669-0.1245 8e-3 -0.0143 0.0135-0.0294 0.0211-0.0438 0.0142-0.0271 0.0304-0.0549 0.0495-0.0789h-2.9862z" style="paint-order:fill markers stroke"/>
    <path d="m131.78 183.72c4e-3 7e-3 0.0196 0.01 0.0238 0.0123 0.0101 7e-3 0.0212 0.0245 0.0284 0.034 4e-3 6e-3 0.0102 0.011 0.0129 0.0179 7e-3 0.0191 8e-3 0.0525 7e-3 0.0716-2e-3 0.0517-0.0156 0.10034-0.0292 0.14997-0.0249 0.0958-0.0675 0.18534-0.10051 0.27827-7e-3 0.0194-0.013 0.0392-0.0195 0.0588-7e-3 0.021-0.0136 0.0422-0.0209 0.063-8e-3 0.0215-0.0159 0.0428-0.0239 0.0642-8e-3 0.0221-0.0161 0.0441-0.0239 0.0662-0.0253 0.072-0.0505 0.14374-0.0777 0.21509-0.0529 0.13445-0.1213 0.26251-0.20014 0.38349-0.0149 0.0229-0.0309 0.0451-0.0463 0.0677-0.0634 0.0851-0.12968 0.17964-0.21257 0.24738-0.0118 0.01-0.0247 0.0177-0.0371 0.0265-0.0295 0.0183-0.0603 0.0347-0.0927 0.0472-0.0209 8e-3 -0.03 8e-3 -0.0483 0.0212-7e-3 6e-3 -0.0133 0.0129-0.0199 0.0193-0.0339 0.0468-0.0689 0.0924-0.10805 0.13502-0.019 0.0186-0.0155 0.0162-0.0358 0.0321-6e-3 4e-3 -0.0107 0.0106-0.0176 0.0131-0.0118 4e-3 -0.0276-7.9e-4 -0.0352-0.0105-6e-3 -8e-3 -9e-3 -0.0188-0.0135-0.0281 0.97712-3e-3 1.9545-0.0322 2.9314-9e-3 0.026 5.3e-4 -5.3e-4 0.0521-5e-3 0.0777-1e-3 7e-3 -6e-3 0.0149-0.0119 0.0188-3e-3 2e-3 -7e-3 -3e-3 -9e-3 -6e-3 -8e-3 -0.0116-0.015-0.0493-0.017-0.0577-0.0179-0.0698-0.0379-0.13229-0.10717-0.16664-0.0164-8e-3 -0.0344-0.0154-0.0528-0.0154-2.8067-0.0131-1.932-0.17331-2.9151 0.01-0.016 2e-3 -0.032 4e-3 -0.0481 6e-3 -0.017 1e-3 -0.034 2e-3 -0.051 2e-3 -0.0168-5.3e-4 -0.0669-4e-3 -0.0502-4e-3 0.91968-1e-3 1.8394-2e-3 2.759 5.3e-4 0.0142 4e-5 -0.0276 6e-3 -0.0417 8e-3 -0.0131 2e-3 -0.0265 1e-3 -0.0397 2e-3 -0.0126 5e-5 -0.0253 2e-3 -0.0379 1.5e-4 -0.0269-3e-3 -0.0442-0.0112-0.069-0.0209-0.0285-0.0112-0.0539-0.0237-0.0799-0.0398-0.0242-0.0127-0.0408-0.0343-0.0602-0.0525-4e-3 -4e-3 -9e-3 -6e-3 -0.013-0.0102-8e-3 -8e-3 -0.0128-0.0162-0.0187-0.0252l-2.915 0.15065c0.0184 0.0346 0.0146 0.0286 0.0354 0.0631 7e-3 0.0121 0.0139 0.0248 0.0223 0.0362 0.0226 0.031 0.056 0.058 0.0788 0.089 0.033 0.0333 0.0661 0.0667 0.10374 0.0949 0.0413 0.031 0.0868 0.0563 0.12703 0.0887 0.89039 0.46055 1.7064 0.0531 2.9532 0.0524 0.0161-1e-5 0.032-5e-3 0.048-7e-3 0.0164-2e-3 0.0328-4e-3 0.0493-5e-3 0.0178-1e-3 0.0356-1e-3 0.0535-2e-3 0.97451 0.0408 0.41914 0.0168-2.7268 1e-3 -0.01-5e-5 0.019-6e-3 0.0264-0.0126 0.0305-0.0266 0.0252-0.0759 0.0385-0.11035 3e-3 -2.7e-4 7e-3 -3e-3 9e-3 -8e-4 0.01 0.0125 9e-3 0.0908 0.01 0.10111 0.0932 1.0766 0.7825 0.0984 2.9617 0.0964 8e-3 -0.0302 0.0152-0.0632 0.0305-0.091 0.0114-0.0208 0.029-0.0384 0.0425-0.0578 0.0311-0.0361 0.0641-0.0706 0.10844-0.0903 6e-3 -4e-3 0.0124-7e-3 0.0178-0.0119 0.0144-0.0127 0.0228-0.0273 0.0328-0.0435 0.0195-0.0316 0.0366-0.0646 0.0506-0.099 0.044-0.10883 0.0883-0.21753 0.13362-0.32582 0.0328-0.0763 0.0661-0.15222 0.10296-0.22668 0.0365-0.0738 0.0469-0.0911 0.0865-0.16408 0.0147-0.027 0.0293-0.054 0.044-0.0809 0.0399-0.0741 0.0804-0.14804 0.11768-0.22348 0.0363-0.0734 0.0268-0.0587 0.0611-0.13161 0.01-0.0211 0.0205-0.042 0.0308-0.063 0.01-0.0206 0.0205-0.0409 0.0298-0.0618 0.0432-0.0967 0.0717-0.19936 0.11073-0.29769 0.0398-0.11299 0.0821-0.22505 0.12109-0.33832 6e-3 -0.0305 8e-3 -0.0382 0.0123-0.0667 3e-3 -0.0183 2e-3 -0.0394 8e-3 -0.0571 7.9e-4 -2e-3 3e-3 -4e-3 4e-3 -6e-3 0 0-2.9917 0.0963-2.9917 0.0963z" style="paint-order:fill markers stroke"/>
    <path d="m129.66 185.3c1e-3 -8e-3 6e-3 -0.0122-1e-3 -0.0115-1e-3 1e-4 -0.0148 3e-3 -0.0149 3e-3 -5e-3 -0.0103-0.018-0.0334-7e-3 -0.0334 0.98047-2e-3 1.9609 0.0178 2.9413 0.0267-3e-3 0.0308-5.3e-4 0.0717-0.0121 0.10156-4e-3 0.0111-4e-3 -8e-3 -8e-3 2e-3 1.3e-4 8e-4 2.6e-4 2e-3 5.3e-4 2e-3l-2.9552-0.0158c-2.6e-4 0.01-7.9e-4 0.0199-1e-3 0.0298 2e-5 0.0268 2e-3 0.0528 3e-3 0.0796 3e-3 0.051 6e-3 0.1022 0.0188 0.15206 0.98531 0.0109 1.9706 0.0217 2.9559 0.0326 4e-3 -0.0122 5e-3 -0.0252 0.0107-0.0366 1e-3 -3e-3 0.0558-0.0308 0.0468-0.0389l-2.9777-0.29359z" style="paint-order:fill markers stroke"/>
    <path d="m129.71 185.41c4e-3 0.0277-9e-3 0.0542-0.0191 0.0795-2e-3 0.0266-3e-3 0.0532-5e-3 0.0798l2.9653 2e-3c-2e-3 0.0194-3e-3 0.0388-4e-3 0.0582 7e-3 -9e-3 0.0279-0.0302 0.038-0.0327 3e-3 -7.9e-4 6e-3 5.3e-4 9e-3 1e-3l-2.9839-0.18787z" style="paint-order:fill markers stroke"/>
    <path d="m131.83 185.87c2e-3 6e-5 4e-3 -5.3e-4 5e-3 1.8e-4 8e-3 4e-3 0.0159 0.0346 0.0186 0.0428 6e-3 0.0236 8e-3 0.0488 7e-3 0.0732-5.3e-4 9e-3 -3e-3 0.0179-3e-3 0.027 2.7e-4 0.0474 3e-3 0.0949 4e-3 0.14231 0.98779-0.0216 1.9756-0.0433 2.9634-0.0649-2.7e-4 -0.0361-4e-3 -0.0477 6e-3 -0.0801 5e-3 -0.0155 0.0207-0.0475 0.0268-0.0621 5e-3 -0.0115 9e-3 -0.0233 0.0136-0.035 0.0176-0.0483 8e-3 -0.0248 0.0286-0.0706l-2.88-0.12616c-0.0198 0.0405-9e-3 0.0211-0.0326 0.0584-0.012 0.0172-0.0232 0.0349-0.0358 0.0518-8e-3 0.0103-0.0287 0.0389-0.0438 0.0418-9e-3 2e-3 -0.0367-8e-3 -0.0272-8e-3 0.98101-0.0177 1.9621-0.0296 2.9432-0.0445-2e-3 0.0458-2e-3 0.0918-7e-3 0.13739-2.6e-4 3e-3 -6e-3 4e-3 -8e-3 2e-3 -8e-3 -6e-3 -4e-3 -0.0497-2e-3 -0.0585 4e-3 -0.0257 6e-3 -0.052 0.014-0.0767l-2.9906 0.0494z" style="paint-order:fill markers stroke"/>
    <path d="m132.88 183.21c0.0307 0.0324 0.0399 0.0778 0.0456 0.12044 0.01 0.0481 9e-3 0.0973 0.0132 0.14593 3e-3 0.0399 6e-3 0.046 0.0133 0.0861 0.0197 0.11858 0.0117 0.23931 6e-3 0.35873-2e-3 0.0711-0.0121 0.1414-0.0219 0.2117-0.0101 0.0725-0.0211 0.14451-0.0339 0.21664-0.0167 0.076-0.0249 0.15362-0.0402 0.22991-5e-3 0.0274-0.0124 0.0544-0.0186 0.0816-6e-3 0.0281-0.0115 0.0565-0.0188 0.0843-8e-3 0.0287-0.0171 0.0569-0.0257 0.0853-0.0507 0.16839-0.11686 0.33132-0.18421 0.49353-0.0621 0.14728-0.13447 0.2897-0.21088 0.42995-0.04 0.0701-0.0779 0.14284-0.13354 0.20229-0.0256 0.0273-0.0371 0.0348-0.0655 0.0572-0.0187 0.0118-0.0353 0.0239-0.0562 0.0316-8e-3 3e-3 -0.0165 4e-3 -0.0247 6e-3 -0.0197 5e-3 -0.0393 0.01-0.0593 0.0139-8e-3 2e-3 -0.0234 6e-3 -0.0319 3e-3 -0.0118-3e-3 -0.0181-0.0131-0.0261-0.0213-4e-3 -4e-3 -8e-3 -7e-3 -0.0111-0.0109-4e-3 -5e-3 -6e-3 -0.0119-9e-3 -0.0178-0.69718-0.71608 3.8744-0.11799 2.9101-0.0126-0.97442 0.10652-1.9605-1e-3 -2.9407 5e-3 -6e-3 3e-5 -8e-3 9e-3 -0.0125 0.0133-5e-3 5e-3 -0.0207 0.0144-0.0264 0.0182-7e-3 0.0112-0.0193 0.0181-0.0277 0.0283-5e-3 6e-3 -9e-3 0.0131-0.0133 0.0195-4e-3 6e-3 -9e-3 0.0105-0.0119 0.0163-0.01 0.0173-0.0145 0.0328-0.0212 0.0515-9e-3 0.0244-0.0154 0.0496-0.0221 0.0748-5e-3 0.0177-6e-3 0.0178-9e-3 0.0361-2e-3 0.01-2e-3 0.0196-3e-3 0.0294-5.3e-4 0.0236-3e-3 0.0473-1e-3 0.0709 3e-3 0.0487-0.0323 0.1429 0.0165 0.14566 2.9174 0.16482 2.6201 0.94765 2.9703 1e-3l-2.9538-0.38944c-0.24979-0.96975-0.0483-0.16346 2.946 6e-3 0.0478 3e-3 7e-3 0.0955 8e-3 0.14329 5.3e-4 0.0213-2e-3 0.0426-3e-3 0.0639-2e-3 0.0202-3e-3 0.0364 7e-3 0.0547 2e-3 3e-3 9e-3 0.0201 0.0119 0.0233 2e-3 2e-3 6e-3 3e-3 8e-3 5e-3 3e-3 3e-3 5e-3 7e-3 8e-3 9e-3s7e-3 3e-3 0.01 5e-3c3e-3 3e-3 7e-3 5e-3 0.0104 8e-3 4e-3 1e-3 0.0225 7e-3 0.0252 8e-3 5e-3 3e-3 0.0173 0.0103 0.012 0.0104-0.97262 5e-3 -3.888-0.0656-2.9179 4e-3 0.97772 0.0701 1.9605 2e-3 2.9407-2e-3 5e-3 -2e-5 8e-3 -7e-3 0.0119-0.0106 8e-3 -0.0121 0.0163-0.0236 0.0239-0.0359 0.0149-0.0243 0.0264-0.0505 0.0468-0.0711 0.0146-0.02 0.0286-0.0406 0.0394-0.0631 0.0153-0.0321 0.0264-0.0662 0.0387-0.0995 0.0336-0.10547 0.0635-0.21214 0.10133-0.31625 0.0492-0.14834 0.10084-0.29577 0.15569-0.4421 0.0635-0.17003 0.11836-0.34304 0.17271-0.51619 9e-3 -0.0295 0.0172-0.0593 0.0268-0.0886 0.01-0.0301 0.0216-0.0596 0.0314-0.0897 9e-3 -0.0285 0.0171-0.0575 0.026-0.0861 0.0249-0.0804 0.0522-0.16032 0.0672-0.24343 0.0159-0.0762 0.0323-0.1526 0.0448-0.2295 0.012-0.0735 0.0203-0.1477 0.0346-0.22088 5e-3 -0.0303 0.0187-0.10788 0.0235-0.13873 0.0127-0.0818 0.0244-0.16377 0.0434-0.24443 3e-3 -0.0168 8e-3 -0.0335 0.0104-0.0504 0.0103-0.062 5e-3 -0.12583 0.0181-0.18762 6e-3 -0.0427 0.0149-0.0881 0.0456-0.12045h-2.9903z" style="paint-order:fill markers stroke"/>
    <path d="m82.997 186.13c-0.02127 0.0878-0.01966 0.20023-0.06961 0.27935-0.0087 0.0138-0.05907 0.0247-0.04275 0.024 2.9285-0.12502 3.6913 0.26983 2.7182-0.2029-0.93965-0.8591-0.20888-0.43309-3.2617-0.0231-0.1026 0.0138 0.04665 0.66977 0.05638 0.71153 0.03952 0.0967 0.07904 0.19345 0.11857 0.29018l2.9562-0.11974c-0.03641-0.0805-0.07282-0.16099-0.10924-0.24149-0.03808-0.1477-0.07062-0.22448-0.06601-0.37401 0.0011-0.0323 0.05335-0.0931 0.02111-0.0945-0.96616-0.043-1.9341-0.0226-2.9012-0.0338 0.03351 3e-3 0.07246-0.0109 0.10054 8e-3 0.05066 0.0333 0.07971 0.0914 0.11957 0.13703 0.80437 0.94327 3.2337 1.0361 3.3519-0.30107l-2.992-0.0591z" style="paint-order:fill markers stroke"/>
    <path d="m84.084 187.51c-0.10062-0.52677-0.18963-1.0567-0.27941-1.5857-0.07079-0.41978-0.12757-0.84168-0.18445-1.2635 0 0-2.9369 0.0391-2.9369 0.0391 0.05646 0.42433 0.11126 0.84895 0.17764 1.2719 0.08356 0.53635 0.17133 1.0721 0.23316 1.6115 0 0 2.9899-0.0733 2.9899-0.0733z" style="paint-order:fill markers stroke"/>
    <path d="m84.102 185.66c-0.02859-0.68446 0.0476-1.3688 0.10096-2.0505 0.04242-0.43296 0.07309-0.86918 0.151-1.2979 0.0158-0.0869 0.02663-0.17643 0.06021-0.25816 0.0089-0.0217 0.08411-0.0366 0.06063-0.0359-0.97768 0.0284-1.9546 0.0796-2.9319 0.11941 0.14705 0.9096 0.22808 1.829 0.34074 2.7435l2.909-0.0359c-0.11646-0.92974-0.21719-1.8614-0.27352-2.797-1.0089-0.0622-2.016-0.16996-3.0267-0.18664-0.04717-7.9e-4 -0.02975 0.0898-0.03897 0.13605-0.01815 0.0911-0.03046 0.18333-0.04298 0.27539-0.05936 0.43626-0.10027 0.87497-0.14 1.3134-0.05856 0.691-0.13108 1.3814-0.16129 2.0743h2.9928z" style="paint-order:fill markers stroke"/>
    <path d="m162.52 145.35c-0.34675 0.22521-0.69238 0.45232-1.0383 0.67892-0.71528 0.4658-1.4365 0.9223-2.1605 1.3744-0.47429 0.29533-0.9482 0.59129-1.4219 0.88762 0 0 2.9036 0.29492 2.9036 0.29492 0.47502-0.29652 0.95012-0.59292 1.4272-0.88618 0.73469-0.4533 1.4664-0.91146 2.194-1.3761 0.35367-0.22463 0.70366-0.4562 1.0689-0.6618 0 0-2.9729-0.31172-2.9729-0.31172z" style="paint-order:fill markers stroke"/>
    <path d="m89.917 154.29c0.01622 0.56969 0.06954 1.1395 0.04866 1.7091-0.04127 1.1257-0.30479 2.6748-0.45571 3.7782-0.23916 1.7487-0.44281 3.2122-0.58316 4.9679-0.04855 0.60727-0.06177 1.2168-0.09265 1.8252 0.01032 1.712 0.27515 3.4081 0.12767 5.1202l2.9188 9e-3c-0.03665-1.7108-0.10565-3.4222-0.31147-5.1224 0.0026-1.9722-0.05306-2.07 0.22969-4.2212 0.11184-0.85094 0.2886-1.6921 0.42379-2.5396 0.29163-1.8284 0.57426-3.6689 0.54244-5.5268h-2.8481z" style="paint-order:fill markers stroke"/>
    <path d="m130.6 185.2c0.0923 0.24489 0.16946 0.41461 0.21575 0.67308 0.0115 0.0644 4e-3 0.13076 7e-3 0.1961 2e-3 0.0478 0.0121 0.0955 9e-3 0.14323-2e-3 0.0198-0.0155 0.0366-0.0233 0.0549 4e-3 0.0319 7e-3 0.0638 0.0106 0.0956 0.0349 0.0931 0.0716 0.17422 0.086 0.27319 4e-3 0.0285-1e-3 0.0575-7.9e-4 0.0863 5.3e-4 0.0346 6e-3 0.0691 4e-3 0.10365-2e-3 0.0301-0.0191 0.0589-0.0163 0.0889 5e-3 0.0556 0.0264 0.10848 0.0397 0.16272 0.45227 1.0005 0.8865 0.37204 3.0631 0.21517 0.10967-8e-3 0.0453-0.21518 0.0684-0.32266 0.13843-0.64292 0.0386-0.33388 0.32677-0.96107 0.0735-0.12103 0.14029-0.24644 0.22059-0.36309 0.0373-0.0541 0.1129-0.0842 0.13086-0.14744 0.27566-0.97002-2.5564-1.0587-3.0208-0.16364-0.45059 0.86832 1.9566 0.0591 2.9346 0.0362 0.0366-8e-4 0.0202-0.0704 0.0302-0.10561 0.0296-0.14862 0.11698-0.27832 0.15575-0.42372 0.0169-0.0633 0.0109-0.13171 0.0305-0.19423 0.0258-0.0821 0.0356-0.0711 0.083-0.0635l-2.9815-0.14571c0.0114 0.11361-4e-3 0.20894-0.0243 0.32233-0.01 0.0548-0.0131 0.11131-0.03 0.16436-0.0261 0.0814-0.0656 0.15792-0.0984 0.23688-0.658 1.6128 1.044-2.8488 2.8442 0.46143 0.45978 0.84549-1.928 0.10414-2.8871 0.0245-0.16741-0.0139 0.15731-0.49391 0.0725-0.12692-0.0293 0.12674-0.0896 0.24424-0.13436 0.36637-0.0761 0.14683-0.39828 0.78993-0.51701 0.93958-0.0346 0.0436-0.2044 0.0712-0.14893 0.0753 0.96747 0.0708 1.9376 0.10246 2.9074 0.12662 0.0214 5.3e-4 -0.018-0.0398-0.0331-0.055-0.0131-0.0132-0.0324-0.0183-0.0486-0.0274-0.0135-2e-3 -0.036 8e-3 -0.0404-5e-3 -8e-3 -0.0247 0.0124-0.23766 0.0115-0.254-2e-3 -0.0383-0.0171-0.0748-0.0245-0.1125-0.0221-0.1123-0.0278-0.15426-0.0445-0.26089-0.0285-0.10184-0.0414-0.21198-0.0753-0.31149-0.0242-0.0711-0.0631-0.1366-0.0881-0.20743-0.12058-0.34136-0.10267-0.33619-0.16405-0.70368l-2.8492 0.10847z" style="paint-order:fill markers stroke"/>
    <path d="m132.3 185.27c-0.0129 0.20061-9e-3 0.36449-0.0762 0.55712-0.0497 0.14334-0.0973 0.15697-0.17977 0.26328-0.027 0.0349-0.11065 0.16634-0.13381 0.20226-0.0441 0.16171-0.12503 0.30746-0.19598 0.45783l2.9495 0.10557c0.0333-0.13982 0.11087-0.26317 0.16601-0.39522 0.0773-0.11861 0.14259-0.22983 0.18219-0.36769 0.0811-0.28226 0.0277-0.17515 0.0874-0.49306 0.0208-0.11101 0.051-0.22006 0.0765-0.33009h-2.8759z" style="paint-order:fill markers stroke"/>
    <path d="m82.572 185.84c0.05411 0.27271 0.12892 0.56489 0.13154 0.84745 5.3e-4 0.0446-0.02008 0.087-0.03012 0.1305 0.97775-0.0914 1.9733-0.0672 2.9333-0.27432 0.11438-0.0247-0.04194-0.23039-0.05524-0.34664-0.0137-0.11984-0.01714-0.24062-0.02569-0.36093 0.01709-0.45175-0.06293-0.90669 0.02238-1.356 0.02106-0.11095 0.13564-0.43877 0.17226-0.54734 0.14544-0.32325 0.02745-0.0283 0.11443-0.34005 0.01005-0.036 0.02649-0.07 0.03974-0.10497 0 0-2.931-0.0726-2.931-0.0726-0.02111 0.14428-0.0483 0.28793-0.05427 0.43399-0.0542 0.19861-0.11647 0.4029-0.14374 0.60762-0.03713 0.27874-0.01722 0.42539-0.0222 0.70637-0.0021 0.12462-0.01606 0.24904-0.01389 0.37365 0.0019 0.10471 0.01722 0.20874 0.02585 0.3131 0.0033 0.11904 0.01371 0.2381 0.0099 0.35713-0.0034 0.10646-0.13695 0.30291-0.0315 0.31799 0.96056 0.13737 1.9399 0.0569 2.9095 0.0936 0.04185 2e-3 -0.1003 0.0456-0.12507 0.0118-0.1567-0.21363-0.1068-0.56217-0.10583-0.79042h-2.8203z" style="paint-order:fill markers stroke"/>
    <path d="m81.958 185.16c0.09782 0.48199 0.38792 0.88993 0.61862 1.3145 0.05731 0.10547 0.11603 0.21051 0.16461 0.32027 0.01881 0.0425-0.0098 0.13403 0.03672 0.13463 0.98649 0.0126 1.9721-0.0643 2.9581-0.0964l-2.9681-0.12248c0.9722-5.3e-4 1.9444-1e-3 2.9166-2e-3 -0.05502-0.0263-0.1198-0.0381-0.16505-0.079-0.0961-0.0869-0.17674-0.1906-0.2508-0.2969-0.25877-0.37142-0.42164-0.74749-0.44956-1.2016l-2.8612 0.0285z" style="paint-order:fill markers stroke"/>
   </g>
  </g>
 </g>
</svg>
