<?xml version="1.0" encoding="UTF-8"?>
<!-- Created with Inkscape (http://www.inkscape.org/) -->
<svg width="210mm" height="297mm" version="1.1" viewBox="0 0 210 297" xmlns="http://www.w3.org/2000/svg">
 <text transform="scale(.26458)" fill="black" font-family="sans-serif" font-size="40px" style="line-height:1.25;shape-inside:url(#rect48144);white-space:pre" xml:space="preserve"/>
 <g transform="matrix(4.1531 0 0 3.7829 -118.72 -62.8)" fill="#afafaf" stroke-width=".26458" aria-label="More">
  <g transform="matrix(.58186 0 0 .24837 -13.817 -6.8422)" style="shape-inside:url(#rect2380);white-space:pre" aria-label="More">
   <path d="m105.12 202.44h-2.5586v-19.355q0-0.41015 0.27344-2.4023l-5 18.887h-0.54688l-5-18.887q0.27344 2.0117 0.27344 2.4023v19.355h-2.5586v-30.566h2.5195l4.9609 19.883q0.03906 0.15625 0.07813 0.8789 0-0.29297 0.07813-0.8789l4.9609-19.883h2.5195z"/>
   <path d="m120.7 185.5q0 2.207-2.207 2.207h-6.5234q-2.1875 0-2.1875-2.207v-14.59q0-2.207 2.1875-2.207h6.5234q2.207 0 2.207 2.207zm-2.5977-0.0781v-14.434h-5.7227v14.434z"/>
   <path d="m135.92 174.51h-2.5586v-3.9258l-4.7852 0.15625v16.523h-2.5976v-19.004h2.5976v0.52735q1.2891-0.19531 2.5977-0.41016 1.5625-0.23437 2.5976-0.23437 2.1484 0 2.1484 2.1289z"/>
   <path d="m147.73 199.11q0 2.207-2.1875 2.207h-6.25q-2.1875 0-2.1875-2.207v-14.59q0-2.207 2.1875-2.207h6.25q2.1875 0 2.1875 2.207v6.8359l-0.8789 0.91797h-7.2266v6.875h5.5859v-3.4766h2.5195zm-2.5195-8.9062v-5.7227h-5.5859v5.7227z"/>
  </g>
  <g transform="matrix(-.58186 -.0016634 .00058911 -.24837 124.22 118.39)" style="shape-inside:url(#rect2380);white-space:pre" aria-label="More">
   <path d="m105.12 202.44h-2.5586v-19.355q0-0.41015 0.27344-2.4023l-5 18.887h-0.54688l-5-18.887q0.27344 2.0117 0.27344 2.4023v19.355h-2.5586v-30.566h2.5195l4.9609 19.883q0.03906 0.15625 0.07813 0.8789 0-0.29297 0.07813-0.8789l4.9609-19.883h2.5195z"/>
   <path d="m120.7 185.5q0 2.207-2.207 2.207h-6.5234q-2.1875 0-2.1875-2.207v-14.59q0-2.207 2.1875-2.207h6.5234q2.207 0 2.207 2.207zm-2.5977-0.0781v-14.434h-5.7227v14.434z"/>
   <path d="m135.92 174.51h-2.5586v-3.9258l-4.7852 0.15625v16.523h-2.5976v-19.004h2.5976v0.52735q1.2891-0.19531 2.5977-0.41016 1.5625-0.23437 2.5976-0.23437 2.1484 0 2.1484 2.1289z"/>
   <path d="m147.73 199.11q0 2.207-2.1875 2.207h-6.25q-2.1875 0-2.1875-2.207v-14.59q0-2.207 2.1875-2.207h6.25q2.1875 0 2.1875 2.207v6.8359l-0.8789 0.91797h-7.2266v6.875h5.5859v-3.4766h2.5195zm-2.5195-8.9062v-5.7227h-5.5859v5.7227z"/>
  </g>
 </g>
</svg>
