<?xml version="1.0" encoding="UTF-8"?>
<!-- Created with Inkscape (http://www.inkscape.org/) -->
<svg width="210mm" height="297mm" version="1.1" viewBox="0 0 210 297" xmlns="http://www.w3.org/2000/svg">
 <g transform="matrix(.26458 0 0 .26458 43.676 26.586)" fill="#afafaf" style="shape-inside:url(#rect3818);white-space:pre" aria-label="keep scrolling ">
  <path d="m-121.14 287.86q0.22173 2.723 0.22173 3.8695l-0.22173 7.6674 0.3693 27.517 0.0738 28.448q12.415-8.3123 18.475-14.69 6.0599-6.4492 6.0599-9.1722 0-2.7947-5.4687-3.2963-2.8822-0.28654-2.8822-1.4332 0-0.85988 0.73901-1.0749 0.8129-0.215 6.5772-0.215l11.307 0.0714q3.5473 0 6.4294-0.14341 2.9561 0 2.9561 1.2898 0 1.0032-1.6997 1.2898-5.1731 0.85992-8.8682 2.8663-3.6212 2.0064-9.0899 7.6674-5.0992 5.231-6.5772 6.5925 10.642 4.9444 16.111 27.588 1.3302 5.5177 3.8429 7.6674 2.5126 2.1497 9.3116 2.3647 2.2171 0.1434 2.2171 1.3615 0 1.3615-3.6951 1.3615h-17.884q-2.7344-2.2931-3.6212-4.6578-0.8129-2.3647-1.5519-7.3091-2.5866-17.198-14.189-20.781-0.36968 0.35809-8.4987 6.0193-0.0738 2.2214-0.0738 4.0128 0 13.615 1.6997 16.84 1.7736 3.153 6.0599 3.3679 2.291 0.0714 2.291 1.3615 0 1.1465-4.7297 1.1465h-21.431q-3.9168 0-3.9168-1.2182 0-1.1465 1.7736-1.4332 3.769-0.57327 4.7297-1.2898 1.0346-0.71657 2.1432-2.938 1.1824-2.2214 1.1824-8.384l-0.0738-11.107-0.81291-50.519q0-8.5273-1.7736-11.895-1.6997-3.4396-6.8729-4.2278-1.8475-0.28655-1.8475-1.2898 0-1.2182 6.1338-1.5765 2.8083-0.215 5.986-0.64493 6.1338-0.93153 9.0899-1.0749z"/>
  <path d="m-82.533 276.67q-0.29551 3.6546-0.29551 5.8043 0 10.175 6.1338 17.198 6.2077 7.0225 15.298 7.0225 8.8682 0 16.48-6.8792 2.2171-1.9348 2.8083-1.9348 1.1824 0 1.2563 1.8632-2.8083 5.016-9.6072 8.4556-6.799 3.4396-15.15 3.4396-12.268 0-20.766-8.5273-8.4987-8.599-8.4987-21.712 0-14.045 9.3116-23.432 9.3855-9.3872 20.027-9.3872 9.9767 0 18.032 7.3808 8.0552 7.3091 8.0552 17.198 0 1.5048-0.51728 2.2214-0.44342 0.71656-5.6165 0.71656zm0-3.7262q9.6072 0.42996 18.623 0.42996l3.9168-0.215q4.4341-0.1434 6.7989-1.6481 2.3648-1.5764 2.3648-5.446 0-6.0193-4.2863-10.462-4.2124-4.5144-9.9767-4.5144-5.3209 0-10.642 5.1594-5.247 5.0877-6.7989 16.696z"/>
  <path d="m-37.156 219.77q-0.29551 3.6546-0.29551 5.8043 0 10.175 6.1338 17.198 6.2077 7.0225 15.298 7.0225 8.8682 0 16.48-6.8792 2.217-1.9348 2.8082-1.9348 1.1824 0 1.2563 1.8631-2.8082 5.016-9.6072 8.4556-6.7989 3.4396-15.15 3.4396-12.268 0-20.766-8.5273-8.4987-8.599-8.4987-21.712 0-14.045 9.3116-23.432 9.3855-9.3872 20.027-9.3872 9.9767 0 18.032 7.3808 8.0553 7.3091 8.0553 17.198 0 1.5048-0.51732 2.2214-0.44342 0.71655-5.6165 0.71655zm0-3.7262q9.6072 0.42995 18.623 0.42995l3.9168-0.215q4.4341-0.1434 6.799-1.6481 2.3648-1.5765 2.3648-5.446 0-6.0193-4.2863-10.462-4.2124-4.5145-9.9767-4.5145-5.3209 0-10.642 5.1594-5.247 5.0877-6.7989 16.696z"/>
  <path d="m34.888 149.66q0.44721 3.0716 0.51038 5.5789 0.05418 2.1491-0.21264 6.2411 7.1444-6.9072 10.937-8.9324 3.8651-2.0986 8.6672-2.2124 11.377-0.26965 19.586 8.6392 8.2803 8.8353 8.5891 21.085 0.33411 13.253-8.614 21.923-8.9498 8.5985-21.14 8.8874-8.4223 0.19959-16.892-4.4022-1.0339 8.841-0.76661 19.443 0.15703 6.2324 0.76091 9.6587l0.2921 2.7886q1.5175 4.4798 7.6045 5.4824 2.0795 0.3808 2.2579 1.5951l-0.20356 0.72164-0.50991 0.29863q-9.0999-0.28617-14.271-0.16362-13.077 0.31001-15.731 0.58787-1.6992 0.0404-1.7299-1.1776-0.03031-1.1462 1.4451-1.3245 6.8528-0.87917 8.4942-3.2118 1.7153-2.3344 1.7036-20.397 0.06392-17.993-0.04994-22.506l-0.71278-19.48-0.2187-11.607q-0.2274-9.0262-1.5466-11.504-1.3192-2.4775-6.4997-2.7131-1.7029-0.10317-1.7299-1.1776-0.01571-0.6447 0.56575-1.0169 0.6559-0.37412 6.7122-0.58914zm0.21264 31.892q0.33032 13.109 1.0874 16.747 0.757 3.6377 4.8998 6.6934 4.2167 3.0539 10.866 2.8964 9.0133-0.21352 14.293-7.7933 5.2775-7.6514 5.0049-18.468-0.31063-12.321-6.1113-19.567-5.7287-7.3189-13.782-7.128-7.8312 0.18565-12.253 6.5982-4.3478 6.4108-4.0047 20.022z"/>
  <path d="m168.33 148.77q0 8.3123-6.3555 14.332-6.3555 5.9476-15.076 5.9476-5.1731 0-12.342-3.2246-3.9168-1.7198-4.6558-1.7198-1.2563 0-2.2171 1.5048-1.1824 2.0064-2.217 2.0064-0.88685 0-1.1085-2.0064-0.22174-2.0781-0.29552-9.3155-0.0738-6.2342-0.22173-8.0257 0-2.6513 1.4041-2.6513 0.81294 0 1.2563 1.3615 2.8822 8.169 8.0553 13.902 5.247 5.661 12.268 5.661 4.9514 0 8.7943-2.938 3.8429-3.0096 3.8429-8.0973 0-7.8823-14.115-13.973-9.6811-4.2278-12.933-6.1626-3.2516-1.9348-5.0992-5.231-1.8475-3.2963-1.8475-7.1658 0-7.3808 5.7643-12.325 5.7643-5.0161 13.967-5.0161 6.0599 0 13.302 3.6546 1.1824 0.57326 2.0693 0.57326 0.73902 0 1.6259-1.1465 0.88678-1.0749 1.4041-1.0749 0.66511 0 1.0346 0.57326 0.3693 0.50161 0.81291 6.3059 0.44342 5.7326 0.44342 9.4588 0 2.2931-1.2563 2.2931-1.1085 0-1.7736-2.078-0.59123-1.9348-3.5473-7.3808-2.9561-5.446-6.5033-6.9508-3.4734-1.5048-6.8728-1.5048-5.3209 0-8.7204 2.508-3.3994 2.508-3.3994 6.5209 0 2.508 1.4041 4.5145 1.4041 2.0064 2.5865 3.0096 1.2564 1.0032 14.115 6.5925 7.9814 3.5113 10.494 5.446 2.5126 1.8631 4.2124 5.0877 1.6998 3.2246 1.6998 6.7358z"/>
  <path d="m181.23 119.84q0-13.113 8.6464-22.931 8.7204-9.8171 21.21-9.8171 8.0553 0 15.445 3.8695 7.3902 3.7979 7.3902 9.5305 0 2.2214-1.4042 3.9412-1.4041 1.6482-3.2517 1.6482-4.1385 0-6.3555-6.4492-3.3995-9.8888-11.898-9.8888-8.4248 0-12.859 7.0941-4.3602 7.0225-4.3602 18.488 0 13.472 6.1338 21.999 6.1338 8.5273 14.78 8.5273 5.6904 0 11.011-4.2995 5.247-4.2278 6.1338-10.319 0.36967-2.078 1.6258-2.078 1.3302 0 1.3302 1.2898 0 7.0225-6.725 13.185-6.6511 6.1626-17.884 6.1626-12.268 0-20.619-9.0289-8.3509-9.0289-8.3509-20.924z"/>
  <path d="m275.28 98.42q4.6558-8.0257 9.9028-12.039 5.3209-4.0129 11.159-4.0129 4.0646 0 7.0206 2.8663 2.9561 2.7947 2.9561 6.3775 0 6.8075-5.986 6.8075-2.8083 0-4.7297-3.7979-2.3648-4.8011-6.2816-4.8011-3.6951 0-7.6119 4.0128-3.9168 4.0128-5.247 8.8139-1.3302 4.7294-1.3302 19.921 0 13.902 1.1824 15.98 1.1824 2.0064 6.0599 2.5797 1.3302 0.1434 1.3302 1.0032 0 1.5048-3.4734 1.5048h-23.575q-2.5126 0-2.5126-1.2182 0-1.1465 3.3256-1.2898 4.6558-0.28655 5.7643-2.7946 1.1085-2.508 1.1085-18.488 0-23.432-1.0346-28.162-0.96076-4.7294-7.3902-5.0161-2.6604-0.14341-2.6604-1.3615 0-0.64491 0.51728-0.93156 0.59123-0.35808 6.799-0.71657l13.598-0.71656q0.51733 3.8695 1.1085 15.478z"/>
  <path d="m308.18 137.3q0-12.612 9.3855-22.214 9.3855-9.6022 23.057-9.6022 12.859 0 22.097 8.5989 9.3116 8.5989 9.3116 21.497 0 13.042-9.755 22.93-9.755 9.8172-22.762 9.8172-12.859 0-22.097-9.0289-9.2377-9.1006-9.2377-21.999zm11.972-0.42992q0 12.325 5.8382 20.494 5.9121 8.169 14.559 8.169 7.9074 0 13.893-7.6674 6.06-7.6674 6.06-20.351 0-11.322-5.8382-20.136-5.7643-8.8856-15.002-8.8856-8.5726 0-14.041 8.0973-5.4687 8.0257-5.4687 20.279z"/>
  <path d="m403.78 94.927q0.22171 9.0289 0.36929 18.058l-0.14793 44.643 0.29551 21.641q0 6.1625 1.7736 8.8856 1.8476 2.723 7.8336 3.2246 2.3648 0.215 2.3648 1.3615 0 1.2182-1.9215 1.2182-0.51727 0-1.2563-0.0714-7.6119-0.78823-18.18-0.78823-6.4294 0-10.346 0.57326-0.8129 0.0714-1.478 0.0714-2.217 0-2.217-1.2898 0-1.2182 1.9953-1.2899 6.725-0.0714 8.7943-3.7262 2.1432-3.7262 2.1432-12.397l-0.22174-40.845q-0.0738-19.706-0.5912-23.504-0.44339-3.8695-3.03-6.4492-2.5865-2.5797-7.2423-3.2963-2.8822-0.42995-2.8822-1.5048 0-1.2182 2.3648-1.3615 13.524-0.85991 20.323-3.153z"/>
  <path d="m454.31 136.89q0.22174 9.0289 0.36929 18.058l-0.14792 44.643 0.29551 21.641q0 6.1625 1.7736 8.8856 1.8476 2.723 7.8336 3.2246 2.3649 0.215 2.3649 1.3615 0 1.2182-1.9215 1.2182-0.51727 0-1.2563-0.0714-7.6119-0.78822-18.18-0.78822-6.4294 0-10.346 0.57326-0.81289 0.0714-1.478 0.0714-2.2171 0-2.2171-1.2898 0-1.2182 1.9953-1.2899 6.7251-0.0714 8.7943-3.7262 2.1432-3.7262 2.1432-12.397l-0.22174-40.845q-0.0738-19.706-0.59121-23.504-0.44338-3.8695-3.03-6.4492-2.5865-2.5797-7.2424-3.2963-2.8822-0.42996-2.8822-1.5048 0-1.2182 2.3649-1.3615 13.524-0.85992 20.323-3.153z"/>
  <path d="m481.56 173.64q2.8082 0 5.0253 2.0064 2.2171 2.0064 2.2171 4.3711 0 2.7947-1.8475 4.8011-1.7736 2.0064-4.9514 2.0064-2.8082 0-5.0253-1.7198-2.217-1.7914-2.217-4.801 0-2.938 1.8475-4.8011 1.9215-1.8631 4.9514-1.8631zm8.2031 35.041-0.0738 16.123 0.14792 15.048v11.322l-0.0738 8.5989q0 5.1594 1.6997 6.5925 1.7736 1.3615 5.247 1.5048 4.0646 0.21499 4.0646 1.6481 0 1.1465-1.5519 1.1465-0.59121 0-1.3302-0.0714-6.8728-0.85987-12.785-0.85987-9.4594 0-13.081 0.57326-0.73906 0.1434-1.4781 0.1434-1.7736 0-1.7736-1.2898 0-1.2898 4.1385-1.7914 4.1385-0.50162 5.247-1.7198 1.1824-1.2899 1.1824-7.1658l0.44342-29.666q0-11.895-1.8475-14.045-1.8476-2.2214-7.1685-2.3647-1.7736 0-1.7736-1.1465 0-0.64491 0.59119-1.0032 0.59121-0.35846 8.7943-0.93158 8.2031-0.57325 11.381-0.64491z"/>
  <path d="m518.79 256.24q1.7736 4.2278 2.1432 14.26 4.5819-7.0225 10.124-10.534 5.6165-3.5112 12.194-3.5112 5.0253 0 9.6811 1.8631 4.7297 1.7915 7.2424 6.3059 2.5866 4.4428 2.5866 15.191l-0.44341 24.149q0 6.6642 1.1085 8.384 1.1824 1.6481 4.9514 2.6513 2.5866 0.71658 2.5866 1.5765 0 1.0749-1.2564 1.0749-0.51731 0-1.0346-0.0714-3.3995-0.71661-10.051-0.71661-5.986 0-12.859 0.50162-2.7344 0-2.7344-1.2182 0-0.85989 1.478-1.1465 4.0646-0.8599 5.3209-1.7914 1.2563-0.93157 1.7736-2.4364 0.51732-1.5765 0.81291-10.39 0.36966-8.8139 0.36966-14.332 0-15.12-3.9168-20.136-3.9168-5.0161-9.755-5.0161-8.6465 0-14.411 9.1006-5.6904 9.0289-5.6904 30.168 0 9.6022 1.2563 12.254 1.3302 2.5797 6.5033 3.1529 1.6258 0.14342 1.6258 1.3615 0 1.0032-1.6258 1.0032l-3.8429-0.28652q-2.0692-0.14341-13.672-0.14341l-5.9121 0.14341q-3.2517 0-3.2517-1.1465 0-1.2182 3.5473-1.8631 3.3994-0.64497 4.5819-2.2214 1.1824-1.6481 1.552-10.749 0.4434-9.1006 0.4434-22.716 0-12.683-1.7736-15.765-1.7736-3.0813-4.9514-3.7979-2.8821-0.64492-2.8821-1.7914 0-1.2182 2.217-1.2182l5.986 0.0717q0.96074 0 9.9767-0.21502z"/>
  <path d="m600.94 339.36q3.3255 5.1594 3.3255 11.322 0 9.2438-6.2816 15.765-6.3555 6.5209-18.18 7.3808-7.6119 0.57327-10.42 1.2898-2.7343 0.64496-5.0253 2.723-2.2909 2.0064-2.2909 4.0128 0 3.0096 3.5473 4.4428 3.4734 1.4331 14.706 1.7914 16.48 0.57326 22.023 1.4332 5.5426 0.78821 9.4594 4.9444 3.9907 4.2278 3.9907 10.82 0 10.892-9.9028 17.7-9.9028 6.8075-29.265 6.8075-14.337 0-21.579-3.5829-7.1684-3.5829-7.1684-10.677 0-11.179 21.875-18.201-9.2377-1.4331-13.007-3.9412-3.769-2.4364-3.769-6.8792 0-4.5861 3.9168-8.0257 3.9907-3.5112 11.898-5.8759-7.0946-2.0064-11.455-7.0224-4.2863-5.0877-4.2863-11.895 0-9.8171 7.6858-17.126 7.6858-7.3808 19.51-7.3808 11.529 0 18.771 7.6674 7.6118-8.384 14.263-8.384 4.6558 0 7.1684 2.5797 2.5866 2.5796 2.5866 5.6609 0 1.9348-1.478 3.2246-1.478 1.2898-3.5473 1.2898-3.769 0-5.986-4.2994-1.3303-2.5797-3.1778-2.5797-3.03 0-7.9074 5.016zm-36.138 12.039q0 10.605 4.7297 15.12 4.8036 4.4428 10.125 4.4428 4.9514 0 8.8682-4.5861 3.9907-4.5861 3.9907-14.045 0-9.7455-3.9168-15.048-3.9168-5.3743-9.6072-5.3743-6.2816 0-10.272 5.1594-3.9168 5.1594-3.9168 14.332zm19.658 46.148q-7.6858 0-14.263 2.4364-6.5772 2.4364-9.755 5.8043-3.1039 3.4396-3.1039 8.169 0 6.3059 6.2816 9.6022 6.2816 3.3679 15.741 3.3679 14.337 0 21.284-5.661 6.9468-5.5893 6.9468-12.253 0-5.7326-5.7643-8.5989-5.7643-2.8663-17.367-2.8663z"/>
  <g fill="#afafaf">
   <path d="m597.65 655.08q-0.29929-2.716-0.33183-3.8621l3e-3 -7.6704-1.1537-27.496-0.88495-28.435q-12.174 8.6419-18.049 15.18-5.8737 6.6092-5.7961 9.3312 0.0799 2.7936 5.5606 3.1484 2.8892 0.20913 2.9219 1.3554 0.0227 0.85955-0.70809 1.0943-0.80643 0.23665-6.5686 0.39121l-11.305 0.23151q-3.5459 0.0951-6.4229 0.31589-2.9549 0.0792-2.9917-1.2101-0.0303-1.0028 1.6623-1.3349 5.1466-0.99827 8.783-3.103 3.5626-2.1028 8.8678-7.9082 4.9481-5.3657 6.3868-6.7663-10.779-4.6572-16.891-27.146-1.487-5.4799-4.06-7.5614-2.573-2.0816-9.3754-2.1142-2.2203-0.084-2.255-1.3015-0.039-1.361 3.6549-1.4601l17.877-0.47946q2.7987 2.2189 3.7527 4.5589 0.88003 2.342 1.7597 7.2647 3.076 17.122 14.776 20.392 0.35947-0.36784 8.3238-6.2448 0.0111-2.2225-0.0408-4.0133-0.38821-13.61-2.1793-16.788-1.8629-3.1042-6.1536-3.2042-2.2921-0.0109-2.3289-1.2996-0.0341-1.1461 4.6952-1.2729l21.423-0.57456q3.9153-0.10485 3.95 1.1127 0.0341 1.1461-1.7321 1.4802-3.7512 0.67409-4.6911 1.4162-1.0138 0.74404-2.0586 2.9943-1.1186 2.2523-0.94292 8.4125l0.39049 11.101 2.2531 50.478q0.24331 8.524 2.1121 11.843 1.7972 3.3927 6.9908 4.042 1.855 0.237 1.8836 1.2398 0.0341 1.2177-6.0865 1.7403-2.8011 0.29022-5.9653 0.80514-6.105 1.0956-9.0558 1.3181z" style="shape-inside:url(#rect3818);white-space:pre"/>
   <path d="m559.37 667.3q0.19107-3.6611 0.12971-5.81-0.29022-10.172-6.6219-17.027-6.4056-6.8534-15.492-6.6097-8.8648 0.23774-16.278 7.3183-2.161 1.9935-2.752 2.0093-1.182 0.0329-1.309-1.8287 2.6642-5.0894 9.3624-8.7099 6.6983-3.6206 15.046-3.8444 12.263-0.32874 21.002 7.9673 8.7406 8.3678 9.1145 21.476 0.40051 14.04-8.6398 23.673-9.1142 9.6352-19.752 9.9205-9.9729 0.26746-18.236-6.8945-8.2606-7.0903-8.5425-16.975-0.0426-1.5043 0.45371-2.2344 0.42283-0.7282 5.594-0.86688zm0.10634 3.7248q-9.6158-0.17243-18.628 0.0694l-3.9092 0.31994q-4.4283 0.26232-6.7493 1.8298-2.319 1.6392-2.2086 5.5073 0.17178 6.017 4.5829 10.343 4.3395 4.3998 10.102 4.2453 5.3189-0.14281 10.491-5.4427 5.0999-5.2264 6.3202-16.872z" style="shape-inside:url(#rect3818);white-space:pre"/>
   <path d="m515.63 725.39q0.19107-3.6611 0.1297-5.81-0.2902-10.172-6.6219-17.027-6.4056-6.8534-15.492-6.6097-8.8648 0.23776-16.278 7.3183-2.161 1.9935-2.752 2.0093-1.182 0.0331-1.309-1.8288 2.6641-5.0894 9.3624-8.7099 6.6983-3.6206 15.046-3.8444 12.263-0.32874 21.002 7.9673 8.7406 8.3678 9.1145 21.476 0.40048 14.04-8.6399 23.673-9.1142 9.6352-19.752 9.9205-9.9729 0.26747-18.236-6.8945-8.2606-7.0904-8.5426-16.975-0.0426-1.5043 0.45378-2.2344 0.42279-0.72821 5.5939-0.86689zm0.10634 3.7248q-9.6158-0.17244-18.628 0.0694l-3.9091 0.31993q-4.4284 0.26232-6.7494 1.8298-2.319 1.6393-2.2087 5.5073 0.17179 6.017 4.583 10.343 4.3395 4.3998 10.102 4.2453 5.3189-0.14265 10.491-5.4427 5.0999-5.2264 6.3202-16.872z" style="shape-inside:url(#rect3818);white-space:pre"/>
   <path d="m445.62 797.41q-0.53461-3.0585-0.66927-5.5631-0.11537-2.1468 0.0341-6.2444-6.9446 7.096-10.678 9.2222-3.8037 2.2015-8.6008 2.4439-11.365 0.57457-19.825-8.1108-8.5291-8.61-9.187-20.847-0.71187-13.239 7.9855-22.145 8.7012-8.8352 20.878-9.4508 8.4134-0.4253 17.011 3.9477 0.78137-8.8654 0.21189-19.456-0.33487-6.2258-1.036-9.6346l-0.37157-2.7797q-1.6446-4.4374-7.7579-5.2765-2.0896-0.32507-2.3025-1.534l0.18276-0.72681 0.5012-0.31222q9.1045 0.0422 14.271-0.21904 13.063-0.66046 15.708-1.0094 1.6974-0.0858 1.7629 1.1308 0.0627 1.145-1.4067 1.3627-6.8251 1.0625-8.3994 3.4383-1.6481 2.3794-1.1214 20.435 0.44913 17.988 0.69166 22.496l1.268 19.453 0.54959 11.597q0.48466 9.0167 1.874 11.458 1.3893 2.4412 6.5746 2.5378 1.7052 0.0575 1.7629 1.1308 0.0341 0.64405-0.53653 1.0317-0.64499 0.39155-6.6929 0.76885zm-1.122-31.874q-0.70401-13.096-1.5645-16.712-0.86046-3.616-5.0888-6.5595-4.3022-2.9397-10.944-2.604-9.0038 0.45508-14.065 8.1735-5.0573 7.79-4.4763 18.596 0.66184 12.308 6.6669 19.396 5.9352 7.1625 13.98 6.7558 7.8229-0.39552 12.06-6.9241 4.1633-6.5249 3.4323-20.121z" style="shape-inside:url(#rect3818);white-space:pre"/>
   <path d="m312.25 801.88q-0.23722-8.3091 5.9444-14.496 6.1835-6.1157 14.901-6.3495 5.1711-0.13872 12.429 2.8925 3.9644 1.6141 4.7031 1.5943 1.2558-0.033 2.1733-1.5637 1.1248-2.0373 2.1589-2.0651 0.88649-0.022 1.1653 1.9759 0.28075 2.0713 0.56101 9.304 0.25161 6.2299 0.4505 8.0166 0.0756 2.6503-1.328 2.688-0.81264 0.022-1.2947-1.3272-3.114-8.0886-8.4486-13.68-5.4064-5.5182-12.424-5.3299-4.9495 0.13283-8.7071 3.1726-3.7556 3.1115-3.6105 8.1973 0.22477 7.8793 14.508 13.589 9.798 3.9666 13.104 5.8135 3.3056 1.8468 5.2464 5.0923 1.9408 3.2455 2.0512 7.1135 0.21039 7.3779-5.4107 12.475-5.6191 5.1687-13.819 5.3886-6.0576 0.16254-13.401-3.2966-1.1983-0.54134-2.0848-0.51757-0.73875 0.0183-1.5926 1.1897-0.85579 1.0982-1.3729 1.1121-0.66483 0.0183-1.0506-0.54531-0.38349-0.49151-0.9924-6.2817-0.60672-5.7186-0.71298-9.4433-0.0655-2.2922 1.1904-2.3258 1.1081-0.0293 1.8322 2.0297 0.64616 1.9182 3.7564 7.2828 3.1102 5.3647 6.699 6.7738 3.515 1.4112 6.9131 1.32 5.3189-0.1428 8.6456-2.7408 3.3266-2.5982 3.2122-6.6095-0.0715-2.507-1.5323-4.4751-1.4608-1.968-2.6714-2.9391-1.2845-0.96917-14.298-6.2116-8.0784-3.296-10.645-5.1626-2.5648-1.795-4.3559-4.9728-1.791-3.1778-1.8911-6.6877z" style="shape-inside:url(#rect3818);white-space:pre"/>
   <path d="m300.18 831.14q0.37382 13.108-7.9893 23.154-8.4372 10.047-20.922 10.382-8.0522 0.21609-15.55-3.454-7.4957-3.5983-7.6591-9.3287-0.0632-2.2205 1.2913-3.9773 1.3566-1.6852 3.2034-1.7347 4.1369-0.11073 6.537 6.2763 3.6802 9.7939 12.176 9.566 8.4215-0.22601 12.652-7.4361 4.1583-7.1367 3.8314-18.598-0.38418-13.467-6.7588-21.826-6.3746-8.3596-15.018-8.1278-5.6882 0.15262-10.884 4.593-5.1245 4.3668-5.8372 10.479-0.31027 2.0872-1.566 2.1208-1.3297 0.0367-1.3665-1.2536-0.20017-7.0198 6.3465-13.36 6.4728-6.3386 17.702-6.6397 12.263-0.32874 20.868 8.4727 8.6051 8.8016 8.9443 20.692z" style="shape-inside:url(#rect3818);white-space:pre"/>
   <path d="m206.77 855.07q-4.4252 8.1474-9.5558 12.299-5.2044 4.154-11.04 4.3105-4.063 0.10891-7.0997-2.677-3.0347-2.7143-3.1368-6.2958-0.19408-6.8049 5.7897-6.9654 2.8072-0.0753 4.8362 3.6696 2.5008 4.7358 6.4161 4.6308 3.6937-0.0991 7.4945-4.2154 3.8009-4.1163 4.9937-8.9512 1.1948-4.7633 0.76167-19.949-0.39639-13.896-1.6376-15.942-1.2392-1.9739-6.1312-2.4162-1.3338-0.10795-1.3583-0.96719-0.0426-1.5042 3.4292-1.5974l23.566-0.63203q2.5117-0.0676 2.5464 1.1504 0.034 1.1461-3.2876 1.3785-4.6459 0.41125-5.6824 2.9481-1.0366 2.5368-0.58091 18.51 0.66812 23.423 1.8372 28.123 1.0952 4.7018 7.5304 4.816 2.6635 0.0719 2.6982 1.2897 0.0189 0.64465-0.49049 0.94506-0.58081 0.37378-6.776 0.89858l-13.572 1.0808q-0.62744-3.8541-1.5494-15.442z" style="shape-inside:url(#rect3818);white-space:pre"/>
   <path d="m172.78 817.09q0.35946 12.607-8.7485 22.457-9.1081 9.8501-22.775 10.217-12.854 0.34487-22.333-8.0033-9.5532-8.346-9.921-21.239-0.37195-13.037 9.0974-23.183 9.4714-10.075 22.473-10.424 12.854-0.34489 22.346 8.4331 9.4936 8.8494 9.8615 21.743zm-11.955 0.75073q-0.35152-12.32-6.4204-20.33-6.1428-8.0074-14.786-7.7756-7.9044 0.21207-13.67 8.037-5.839 7.8269-5.4774 20.506 0.32275 11.318 6.4102 19.972 6.0155 8.7277 15.25 8.48 8.5693-0.23005 13.805-8.4707 5.2378-8.1692 4.8884-20.418z" style="shape-inside:url(#rect3818);white-space:pre"/>
   <path d="m78.428 862.01q-0.4791-9.0195-0.88407-18.041l-1.1251-44.63-0.91245-21.625q-0.17556-6.1602-2.0263-8.8346-1.9245-2.6724-7.9226-3.0134-2.3701-0.15153-2.4028-1.2976-0.03407-1.2177 1.886-1.2692 0.51708-0.0151 1.2579 0.0377 7.6314 0.58382 18.195 0.30049 6.427-0.17245 10.326-0.85042 0.81055-0.0932 1.4754-0.11121 2.2162-0.0593 2.253 1.2299 0.03403 1.2178-1.9578 1.3429-6.7204 0.25167-8.6847 3.9605-2.0361 3.7823-1.7889 12.45l1.3863 40.823q0.63567 19.696 1.2612 23.479 0.55352 3.8561 3.2127 6.3655 2.6591 2.5094 7.3336 3.1008 2.8933 0.35259 2.924 1.427 0.034 1.2177-2.3251 1.4244-13.494 1.2222-20.225 3.6966z" style="shape-inside:url(#rect3818);white-space:pre"/>
   <path d="m26.714 821.42q-0.4791-9.0195-0.88408-18.041l-1.1251-44.63-0.91245-21.624q-0.17556-6.1602-2.0263-8.8346-1.9245-2.6724-7.9225-3.0134-2.3701-0.15153-2.4028-1.2975-0.03407-1.2178 1.886-1.2693 0.51709-0.0151 1.2579 0.0379 7.6315 0.58382 18.195 0.30047 6.427-0.17243 10.326-0.8504 0.81055-0.0932 1.4754-0.11121 2.2162-0.0593 2.253 1.2299 0.03407 1.2178-1.9578 1.3429-6.7205 0.25169-8.6847 3.9605-2.0361 3.7822-1.7889 12.45l1.3863 40.823q0.63568 19.696 1.2612 23.479 0.55356 3.8562 3.2127 6.3655 2.6591 2.5094 7.3336 3.1009 2.8933 0.35258 2.924 1.427 0.03407 1.2177-2.3251 1.4244-13.494 1.2222-20.225 3.6966z" style="shape-inside:url(#rect3818);white-space:pre"/>
   <path d="m-1.5726 785.41q-2.8072 0.0753-5.0806-1.8709-2.2734-1.9462-2.3408-4.31-0.07977-2.7936 1.7099-4.8488 1.7157-2.0532 4.8923-2.1384 2.8072-0.0752 5.0724 1.5844 2.2673 1.7313 2.3531 4.7398 0.08355 2.9369-1.7099 4.8488-1.8676 1.9139-4.8964 1.9951zm-9.1991-34.807-0.38598-16.119-0.57695-15.038-0.32276-11.318-0.1714-8.5976q-0.14714-5.1574-1.887-6.5444-1.8118-1.3134-5.2879-1.3636-4.0692-0.10602-4.11-1.5385-0.03408-1.1461 1.5186-1.1877 0.59099-0.0152 1.3318 0.0367 6.8947 0.6753 12.805 0.5168 9.4558-0.25352 13.059-0.92375 0.73469-0.16327 1.4734-0.18307 1.773-0.0478 1.8097 1.2418 0.037846 1.2894-4.0858 1.9017-4.1226 0.61238-5.196 1.8598-1.1452 1.3211-0.97765 7.1947l0.40267 29.667q0.33902 11.891 2.2473 13.99 1.9102 2.171 7.2332 2.1716 1.773-0.0477 1.8056 1.0985 0.019003 0.64466-0.56237 1.0187-0.58076 0.37415-8.7644 1.167-8.1836 0.79296-11.358 0.94981z" style="shape-inside:url(#rect3818);white-space:pre"/>
   <path d="m-41.144 703.84q-1.8935-4.1786-2.549-14.197-4.3799 7.1427-9.8203 10.801-5.5143 3.6605-12.089 3.8368-5.0234 0.13464-9.7305-1.6029-4.779-1.664-7.4194-6.1093-2.7123-4.3717-3.0188-15.116l-0.24519-24.151q-0.18994-6.6616-1.3472-8.351-1.229-1.6158-5.0251-2.5176-2.606-0.64694-2.6305-1.5065-0.0303-1.0745 1.2252-1.1082 0.51709-0.0151 1.0363 0.0436 3.4186 0.62522 10.067 0.44691 5.9837-0.16033 12.84-0.84616 2.7334-0.0733 2.7681 1.1444 0.0227 0.85955-1.4448 1.1857-4.0385 0.96851-5.2678 1.9334-1.2293 0.96492-1.7035 2.483-0.47214 1.5898-0.51629 10.408-0.11806 8.8205 0.03898 14.336 0.43112 15.114 4.4894 20.023 4.0583 4.9091 9.8943 4.7526 8.6432-0.23189 14.146-9.4834 5.4308-9.178 4.828-30.309-0.27394-9.5985-1.6052-12.215-1.4033-2.543-6.5908-2.9774-1.6293-0.0997-1.664-1.3174-0.03027-1.0028 1.5966-1.0464l3.8496 0.18344q2.0725 0.0881 13.671-0.22306l5.9058-0.30195q3.2504-0.0874 3.2831 1.0589 0.03408 1.2177-3.4928 1.9575-3.3798 0.73585-4.5168 2.3434-1.135 1.6792-1.2448 10.786-0.18389 9.109 0.20432 22.719 0.36173 12.679 2.2225 15.711 1.8608 3.0326 5.0578 3.6637 2.8994 0.56738 2.9321 1.7135 0.03408 1.2177-2.1815 1.2771l-5.9858 0.0892q-0.96035 0.0258-9.9668 0.4824z" style="shape-inside:url(#rect3818);white-space:pre"/>
   <path d="m-125.63 622.96q-3.4714-5.0683-3.6471-11.228-0.26373-9.2404 5.8297-15.927 6.1672-6.6888 17.962-7.8654 7.5926-0.77712 10.379-1.5687 2.7149-0.71801 4.9458-2.8567 2.2328-2.0671 2.1756-4.0727-0.0859-3.0085-3.6726-4.346-3.5129-1.3395-14.752-1.3965-16.49-0.13133-22.055-0.84224-5.563-0.63933-9.5968-4.6889-4.1097-4.1192-4.2977-10.709-0.31064-10.888 9.3944-17.958 9.7049-7.0704 29.06-7.5894 14.331-0.3844 21.673 3.003 7.2678 3.3894 7.4702 10.481 0.31859 11.174-21.348 18.781 9.275 1.1849 13.114 3.591 3.837 2.3344 3.9637 6.7755 0.13092 4.5843-3.6864 8.1276-3.8891 3.6169-11.726 6.1927 7.1491 1.8154 11.651 6.7127 4.4297 4.9708 4.6238 11.776 0.28 9.8134-7.1945 17.326-7.4724 7.584-19.292 7.901-11.524 0.30894-18.982-7.1612-7.3698 8.5849-14.018 8.7632-4.654 0.12468-7.2392-2.3865-2.6591-2.5093-2.747-5.5894-0.0553-1.934 1.3855-3.263 1.4407-1.329 3.5091-1.3844 3.7676-0.10096 6.1064 4.1373 1.4033 2.543 3.2501 2.4935 3.0288-0.0811 7.7614-5.2261zm35.781-13.003q-0.30232-10.601-5.159-14.987-4.9285-4.3123-10.247-4.1696-4.9495 0.13284-8.734 4.8221-3.8584 4.6913-3.5887 14.147 0.27773 9.7417 4.3444 14.937 4.0685 5.2673 9.7568 5.1147 6.2792-0.1684 10.121-5.4328 3.7681-5.2624 3.5066-14.431zm-20.966-45.603q7.6828-0.20619 14.188-2.8178 6.5053-2.6118 9.5858-6.0636 3.0046-3.5215 2.8697-8.2491-0.17973-6.3035-6.553-9.4301-6.3753-3.1982-15.831-2.9446-14.331 0.38437-21.114 6.2294-6.7847 5.7734-6.5947 12.435 0.16346 5.7305 6.0073 8.4412 5.8438 2.7107 17.442 2.3996z" style="shape-inside:url(#rect3818);white-space:pre"/>
  </g>
 </g>
</svg>
